<?xml version="1.0" encoding="utf-8"?>
<svg id="svg2" viewBox="3.843 75.583 515.373 445.813" xmlns="http://www.w3.org/2000/svg">
  <desc>Source: openclipart.org/detail/209545</desc>
  <defs/>
  <path d="M 4.057 139.629 C 4.057 104.329 32.757 75.629 68.057 75.629 L 452.057 75.629 C 487.357 75.629 516.057 104.329 516.057 139.629 L 516.057 459.629 C 516.057 494.929 487.357 523.629 452.057 523.629 L 68.057 523.629 C 32.757 523.629 4.057 494.929 4.057 459.629 L 4.057 139.629 Z M 68.057 203.629 L 68.057 459.629 L 228.057 459.629 L 228.057 203.629 L 68.057 203.629 Z M 452.057 203.629 L 292.057 203.629 L 292.057 459.629 L 452.057 459.629 L 452.057 203.629 Z"/>
  <text style="font-family: Arial, sans-serif; font-size: 231px; white-space: pre;" transform="matrix(1.239314, 0, 0, 0.999977, -40.369801, 5.125164)" x="88.393" y="407.238">0</text>
  <text style="font-family: Arial, sans-serif; font-size: 231px; white-space: pre;" transform="matrix(1.239314, 0, 0, 0.999977, 182.356064, 4.350979)" x="88.393" y="407.238">1</text>
</svg>